<?xml version="1.0" encoding="utf-8"?>
<!-- Generator: Adobe Illustrator 28.1.0, SVG Export Plug-In . SVG Version: 6.00 Build 0)  -->
<svg version="1.1" id="Ebene_1" xmlns="http://www.w3.org/2000/svg" xmlns:xlink="http://www.w3.org/1999/xlink" x="0px" y="0px"
	 viewBox="0 0 1364.8 1364.8" style="enable-background:new 0 0 1364.8 1364.8;" xml:space="preserve">
<style type="text/css">
	.st0{fill:#FFEEEE;}
	.st1{clip-path:url(#SVGID_00000083071924866861094880000015425949969663859384_);}
	.st2{fill:#C4C1BB;}
	.st3{fill:#ACABAB;}
	.st4{fill:#ABAAAA;}
	.st5{fill:#010101;}
	.st6{fill:#4E4534;}
	.st7{fill:#FDCDAF;}
	.st8{fill:#1F120C;}
	.st9{fill:#80736A;}
	.st10{fill:#282B27;}
	.st11{fill:#8B7F70;}
	.st12{fill:#545959;}
	.st13{fill:#232828;}
</style>
<g>
	<g id="Design">
		<circle class="st0" cx="682.4" cy="682.4" r="682.4"/>
		<g>
			<g>
				<defs>
					<circle id="SVGID_1_" cx="682.4" cy="682.4" r="682.4"/>
				</defs>
				<clipPath id="SVGID_00000152951548919416522970000000755420174173667239_">
					<use xlink:href="#SVGID_1_"  style="overflow:visible;"/>
				</clipPath>
				<g style="clip-path:url(#SVGID_00000152951548919416522970000000755420174173667239_);">
					<g>
						<path class="st2" d="M929.5,1364.8h-508c0-0.9,0.3-1.6,1.1-2.1c2.9-1.5,6.2-1.2,9.3-1.2c162.4,0,324.8,0,487.2,0
							c3.1,0,6.3-0.3,9.3,1.2C929.2,1363.1,929.6,1363.9,929.5,1364.8L929.5,1364.8z"/>
						<path class="st2" d="M268.6,1364.8c0-6.8-1.1-13.6,1.1-20.3c3.1,3.4,1.6,7.5,2,11.3c0.3,2.9,0,6.2,4.6,5.7
							c43.5-0.2,87-0.1,130.5-0.1c2.5,0,5.1-0.1,7.4,1.2c0.8,0.5,1.1,1.2,1,2.1H268.6V1364.8z"/>
						<path class="st2" d="M1096.2,1363.3c0,0.5,0.1,1,0.1,1.4H934.6c-0.1-0.9,0.3-1.6,1.1-2.1c2.3-1.3,4.9-1.2,7.4-1.2
							c48.5,0,97,0,145.5,0c1.1,0,2.1,0.1,3.1,0.2C1093.3,1361.8,1095,1362.1,1096.2,1363.3z"/>
						<path class="st3" d="M415.2,1364.8c0-0.3,0-0.7,0-1c0.1-0.2,0.3-0.5,0.4-0.7c1.5-1,3.2-0.9,4.8-0.4c0.5,0.2,0.9,0.7,1.1,1.2
							c0,0.3,0,0.6,0,0.9H415.2L415.2,1364.8z"/>
						<path class="st4" d="M934.6,1363.8c0,0.3,0,0.6,0,0.9h-5.1c0-0.3,0-0.6,0-0.9c0.1-0.2,0.2-0.5,0.3-0.7
							c1.2-0.8,2.4-0.8,3.8-0.4C934.1,1362.9,934.4,1363.3,934.6,1363.8L934.6,1363.8z"/>
						<path class="st5" d="M1096.2,1363.3c-1.2,0-2.4,0-3.6,0c-3.1-7.1-2.4-14.8-2.9-22.2c-0.6-8.8-0.2-17.7-0.1-26.5
							c0.1-26.9-1.8-53.8-3.6-80.6c-3.2-47.4-9-94.6-13.8-141.9c-0.9-9.2-1-18.5-1.3-27.7c-0.7-23.4-3.1-46.6-5.6-69.8
							c-2.9-26.6-5.2-53.2-9.8-79.5c-5.3-29.9-12.3-59.4-23.8-87.6c-10.3-25.2-26.5-45.8-49-61.2c-24-16.3-49.9-28.7-77.1-38.7
							c-23.8-8.7-48.9-12.8-72.7-21.1c-4.2-1.5-5.6,0.8-7.1,4c-6.7,13.9-14.1,27.7-26,37.7c-26.9,22.4-56.5,39.3-93,38.2
							c-18.6-0.6-36.6-5.7-53.9-12.4c-23-8.9-45.6-18.6-63.6-36.5c-9.6-9.6-17.8-20.2-24.5-31.9c-1.5-2.6-2.3-5.5-0.6-8.4
							c0.9-1.3,2.5-1.7,3.4-2.9c-0.9,0.9-2.2,1.4-3.3,2.2c-15.4,6.3-31.6,10.7-46.5,18.1c-33.7,16.9-68.4,31.5-101.3,50.1
							c-39.3,22.2-64.2,55.5-78.7,97.4c-9.3,26.8-14.3,54.5-18.7,82.4c-6.4,40.3-12.4,80.7-19.6,120.9c-3.2,18-3.1,36.5-6,54.5
							c-6.4,40.1-8.6,80.7-13,121.1c-3.7,33.6-1.9,67.3-2.4,100.9c-0.1,7.3,0,14.7-3,21.6c-5.3,0.1-5.2,0.1-5.2-4.5
							c0-4.8,0.7-9.5,0.1-14.3c0.7-17,1.1-34.1,0.9-51.1c-0.3-27,2-53.8,5.1-80.6c2.6-21.7,4.1-43.6,6.5-65.3
							c2-18.2,4.8-36.3,7-54.4c1-8.3,1.6-16.8,2.7-25.1c2.5-20.5,6.8-40.7,9.8-61c3.8-25.8,7.9-51.6,12.3-77.3
							c5.1-29.7,11.9-58.9,24.2-86.6c15.8-35.7,39.4-64.3,73.9-83.6c15.2-8.5,30.4-17,46.4-24.2c10.7-4.8,21.4-9.8,31.9-15.1
							c26-13.1,53.1-23.2,81.1-31c7.4-2,12.1-6.1,15.4-12.6c4-7.9,5.6-16.2,6.1-24.9c0.8-13.3-1.1-26.4-2.7-39.6
							c-1.1-9.3-4.7-17.8-7-26.8c-3.3-13.1-4.7-26.5-6.5-39.8c-0.4-3.3-1.3-4.4-5-4.5c-8.9-0.2-15.4-5.1-20-12.5
							c-2.7-4.3-4.1-9.2-5.4-14.1c-3.1-12.2-5.8-24.6-7.1-37.1c-0.3-2.9-0.4-5.9-0.1-8.8c1.1-9.1,4.7-14.2,13.4-19.3
							c-4.7-10.8-9.4-21.5-14-32.3c-7-16.1-9.8-33-8.6-50.5c0.5-7.2,2-14.2,3.9-21c3.6-12.7,7.7-25.3,10.9-38.2
							c3.9-15.5,13.4-25.3,28.3-30.3c18.8-6.2,37.3-12.9,55-21.8c10.9-5.5,22.3-9.6,34.1-12.9c13.1-3.7,25.7-3.3,38.3,1.8
							c5.4,2.2,11,4.3,16.3,6.7c14,6.4,28.7,9.3,43.8,11c6.5,0.7,13,1.4,19.2,3.6c9.6,3.3,16.9,9.1,21.8,18
							c2.2,4.1,4.5,8.1,6.8,12.1c3,5.2,6.9,9.6,12.1,12.6c18.4,11,25.9,27.7,26.5,48.6c0.6,20.8-4.1,40.5-12,59.5
							c-4.5,10.7-9.6,21-16.2,30.5c11.2,5.5,14.7,15.5,15.3,26.2c1.1,20.1-3.8,38.8-15.8,55.3c-2.7,3.8-6.1,7-9.9,9.7
							c-4.6,3.3-9.5,4.4-14.9,2.3c-1.6,0.7-1.6,2.3-1.9,3.7c-0.4,1.6-0.6,3.3-1.2,4.9c-5.7,15.7-6,32.1-6.4,48.5
							c-0.4,16.6-1,33.2-1.4,49.9c-0.2,9,2.1,17.5,5.7,25.6c5.2,11.7,14.5,19.1,26.6,22.5c18.2,5.2,36.2,10.8,54.6,15.3
							c40,10,77.9,25.2,112.5,48c27.9,18.4,47.1,43.4,58.3,74.8c10.9,30.6,18.5,62,23,94.2c5.6,40,9.9,80.2,12.9,120.5
							c1.3,16.6,1.7,33.2,3.1,49.8c1.7,20.1,4,40.2,5.8,60.3c1.7,18.6,4.1,37.2,5.6,55.9c3.8,46,5.7,92,5.4,138.2
							C1096.4,1355.8,1096.3,1359.5,1096.2,1363.3L1096.2,1363.3z"/>
						<path class="st6" d="M274.9,1363.3c2.2-27.1,1.3-54.2,1.4-81.4c0.1-17.9,1.6-35.6,3.6-53.4c1.2-10.4,1.7-20.9,2.9-31.3
							c1.2-10.4,1.6-20.9,3.3-31.3c0.8-5.2,1-10.5,1.3-15.7c0.7-11.2,3.5-21.9,4.7-33c0.9-8.8,2.5-17.4,3.1-26.2
							c1-17.6,3.6-35,7-52.3c2.8-14.6,5.4-29.2,7.3-44c2.3-17.2,5.6-34.3,8.1-51.5c2.2-15.2,4.8-30.2,8.2-45.2
							c5.3-23.2,12.2-45.9,23.6-67c8.7-16.2,19-31.2,32.6-43.8c10.2-9.5,21.8-17.1,33.8-24.2c20.5-12.2,41.9-22.3,63.6-32.1
							c8.2-3.7,16.2-8,24.3-12c18.6-9.4,38.2-16.4,57.9-23.2c1.4-0.5,2.8-0.9,4.3-0.9c0.4,0.3,0.5,0.6,0.4,0.8
							c-0.1,0.3-0.3,0.4-0.4,0.4c-2.1,3.1-1.1,6.1,0.6,8.9c4.7,7.7,9.7,15.2,15.7,22.1c15.8,18.2,35.4,30.6,57.6,39.6
							c16.8,6.8,33.9,12.3,51.6,16c19.4,4,38.1,1.9,56.3-5c16-6.1,30.7-14.7,44.4-24.9c10-7.4,17.6-16.9,23.9-27.4
							c3.9-6.5,8-12.9,10.2-20.2c0.7-2.4,1.8-2.2,3.7-1.6c8,2.6,15.9,6,24.1,7.5c20,3.6,39,10.4,57.9,17.1
							c28.5,10.1,55.3,23.6,79.4,42.1c20.1,15.4,34.3,35.6,43.5,59.2c9.8,25.3,16.5,51.5,21.4,78.2c3.5,19,6,38.1,7.8,57.3
							c1.2,13.1,3.3,26.2,4.7,39.3c1.2,11.5,1.8,23,2.8,34.5c1.5,17.2,1.8,34.4,2.7,51.6c0.5,9.8,2.2,19.5,3.3,29.3
							c1,9.8,1.9,19.6,2.9,29.4c1.1,10.2,2.2,20.4,3.3,30.6c0.6,5,1.1,10,1.4,15c0.8,12.8,2.4,25.5,3.1,38.3
							c0.9,15.7,1.6,31.4,2.6,47.2c0.8,12.6,0.9,25.2,0.9,37.8c0,15.2,0.7,30.3,1.3,45.4c-44.3,0-88.6,0.1-132.9,0.1
							c-8.4,0-16.8,0.2-25.2,0.3v-0.5c-2.8-5.3-0.5-10.7-0.2-16c1.2-18.1,0.9-36.1,0-54.2c-0.8-16.3-2.4-32.6-1.1-49.1
							c1.4-16.5,1-33.2-0.3-49.8c-1.7-23-0.3-46,4.7-68.4c8-36.3,11.4-73.2,16-109.9c1.1-9,0.7-18.1,1.1-27.1
							c0.7-15.1,2-30.2,3.1-45.3c-5.1,45.3-6.6,90.9-12.9,136c-2.3,16.3-6.5,32.2-9.5,48.3c-2.6,13.9-4.3,27.8-4.2,42
							c0.2,24.6,0.7,49.3-0.1,73.9c-0.8,25.1,1.6,50,2.4,74.9c0.4,13.8-0.9,27.7-2.5,41.5c-0.2,1.3-0.7,2.4-1.6,3.3v0.5
							c-2.5-0.1-5-0.3-7.5-0.3c-164.3,0-328.6,0-493,0c-2.5,0-5,0.2-7.5,0.3v-0.5c-1.9-2.3-1-4.8-0.7-7.3
							c6.2-44.8,12.8-89.7,15.8-134.8c2.1-32,7-63.6,9.2-95.5c1.4-20.8-0.6-41.6-2.9-62.3c-3.8-34.3-8.7-68.4-13.7-102.5
							c5.3,37.7,9.7,75.5,13.9,113.3c3.6,31.9,1,63.4-3.9,94.9c-2.9,18.5-3.5,37.3-4.7,55.9c-1.2,17.4-3.7,34.7-6.1,52
							c-3.7,26.1-5.5,52.3-10.1,78.3c-0.5,2.9-0.5,5.9-3.3,7.8v0.6c-2.5-0.1-5-0.3-7.5-0.3c-42,0-84,0-125.9,0
							C279.5,1363.5,277.2,1363.4,274.9,1363.3L274.9,1363.3z"/>
						<path class="st5" d="M415.2,1363.2c1.7-10.8,3.5-21.5,5-32.3c1.9-13.1,2.8-26.3,4.7-39.3c1.7-11.4,2.8-22.9,4.2-34.3
							c1.1-8.7,2.4-17.4,3.3-26.2c0.9-7.7,1-15.5,1.3-23.3c0.6-16,2.8-31.7,5-47.5c3.2-23.1,5.7-46.4,3.9-69.7
							c-1.2-14.6-2.5-29.2-4.5-43.8c-2.2-15.8-3.5-31.7-5.4-47.5c-1.4-11.2-3.2-22.4-4.5-33.6c-0.5-3.9-0.1-7.9-0.1-12.5
							c3.2,3.1,2.8,6.9,3.3,10.1c2.7,16.8,5.2,33.6,7.5,50.4c1.6,11.4,2.6,22.9,4.2,34.3c2.2,15,3.5,30,4.5,45
							c0.9,12.7,1,25.6-0.5,38.4c-1.1,9.4-1.7,18.8-2.9,28.2c-1.1,8.7-2.3,17.5-3.3,26.2c-0.8,7.1-1.6,14.2-1.7,21.3
							c-0.2,14.9-1.9,29.7-3.6,44.5c-1.3,11.7-2.4,23.4-4.1,35c-2.8,19.5-4.1,39.2-7.3,58.7c-1,6-2,12-2.8,18
							C419.4,1363.6,417.3,1363.6,415.2,1363.2L415.2,1363.2z"/>
						<path class="st5" d="M929.5,1363.3c0.8-11.9,1.6-23.9,2.3-35.8c0.2-3.4,0.3-6.7,0.1-10.1c-1.1-15.1-1.5-30.2-2.6-45.3
							c-0.6-7.6,0.2-15.1,0.2-22.6c0-26.1,0.2-52.2-0.1-78.3c-0.2-17.3,2.2-34.3,5.7-51.2c2.7-13.1,5.7-26.2,7.9-39.4
							c1.6-9.3,2-18.8,3-28.1c1-8.7,2.1-17.5,3.1-26.2c0.7-6.2,1.8-12.5,1.8-18.8c-0.1-11.6,1-23.1,1.6-34.6
							c0.6-10.4,2.3-20.8,3.9-31.2c0.3-2.2,0.5-5.1,3.4-6.3c0,5,0.6,9.7-0.1,14.3c-2.1,14.8-1.8,29.7-3.3,44.5c-0.4,4-0.2,8-0.2,12
							c-0.1,11.2-1.8,22.1-3.3,33.1c-1.1,8.3-2.3,16.6-2.8,25c-1,14.9-3.9,29.5-6.9,44.1c-3.4,16.9-6.5,33.7-7.6,50.9
							c-0.7,10.7-1.3,21.5-0.5,32.1c1.2,15.6,0.5,31.1,0.9,46.6c0.1,4.7-1,9.2-1.1,13.8c-0.3,14.7,1.4,29.3,2,44
							c0.7,17.2,1.4,34.4-0.6,51.7c-0.6,5.2-0.9,10.4-1.6,15.6C932.9,1363.3,931.2,1363.3,929.5,1363.3L929.5,1363.3z"/>
						<path class="st7" d="M793.9,455.7c-0.2,24-1,48-3.3,71.8c-1.6,16.7-6.7,32.5-12.1,48.2c-2.8,8.1-5.8,16.2-9.6,24
							c-13.6,28-35.3,45.4-66.3,51c-23.2,4.2-45.2,1.1-65.9-10.5c-6.8-3.8-13.4-7.9-19.7-12.6c-17.3-12.7-27.8-29.4-31.3-50.7
							c-4.8-29.7-10-59.4-10.9-89.5c-0.9-29.6,2.3-58.7,10.8-87.3c5.7-19.2,17.6-30.4,37.3-33.8c21.8-3.7,43.6-7.2,65.7-7.8
							c12.2-0.3,24.2-3.1,36.2-5.2c9.1-1.6,18.3-2.3,27.6-1c15.2,2.2,25.7,10.1,31,24.4c4.2,11.3,6.9,23,8.3,34.9
							C793.6,426.3,794.3,441,793.9,455.7L793.9,455.7z"/>
						<path class="st8" d="M797.1,477.9c-0.3-8.8,1.9-17.5,1.1-26.4c-1.1-12.7-1.2-25.5-2.3-38.2c-1.1-13.3-3.9-26.1-8.3-38.6
							c-4.6-13.5-14.1-22.2-27.9-25.8c-9.7-2.5-19.6-2.2-29.4-0.5c-12.2,2.1-24.3,4.5-36.4,6.4c-4.5,0.7-9.3,0.4-13.9,0.2
							c-11.6-0.6-23,1.3-34.4,2.9c-9.1,1.3-18.2,2.4-27.2,4.8c-5.3,1.4-10.3,3.6-15.3,5.9c-8.3,3.9-13.4,10.9-16.9,18.9
							c-6,13.9-9.4,28.6-12,43.5c-2.7,15.5-3.7,31.2-3.7,46.9c0,0.8,0.2,1.6-0.8,2.6c-2.6-3.9-3.7-8.5-5.1-12.7
							c-6.1-17.7-14.4-34.5-21.7-51.7c-7.1-16.7-10.3-34.1-8.9-52.2c0.6-7.7,3-15.2,5.1-22.6c3.7-12.7,7.7-25.3,11.3-38
							c3.1-10.9,10.7-17.4,20.6-21.4c10.3-4.1,20.9-7.5,31.4-11.4c8.7-3.2,17.2-6.8,25.4-11c13.7-7,28.1-12.4,43.2-15.1
							c9.4-1.7,18.8-0.9,27.8,3c10.4,4.4,20.8,9.1,31.6,12.6c9.2,2.9,18.7,4.4,28.3,5.5c8.5,1,17.1,1.8,24.9,5.9
							c6.9,3.6,12.3,8.6,15.7,15.6c1.5,3,3.2,5.9,4.7,8.9c4.4,8.9,12.3,14.1,20,19.6c10.6,7.7,16.3,18.2,18.3,31.1
							c0.8,4.8,1.2,9.5,1.2,14.4c0.1,18.8-4.9,36.4-12.1,53.6c-5,12.1-11.7,23.1-18.6,34.2c-5.7,9.2-11.6,18.5-15,29l-0.4,0.4
							L797.1,477.9L797.1,477.9z"/>
						<path class="st7" d="M595.8,613.1c16.7,20.3,38,33.7,63.2,40.6c22.3,6.2,44.3,3.4,65.7-4.5c14.6-5.4,26.1-15.2,35.6-27.3
							c8.4-10.7,14.1-22.9,19-35.5c3.1,0.3,1.5,2.4,1.4,3.9c-0.8,18.3-1.7,36.6-2.2,54.9c-0.3,11.1,1.9,21.8,7.1,31.7
							c5.1,9.7,12.9,16.4,23,20.6c1.2,0.5,2.4,0.9,3.6,1.3c10.7,3.7,10.6,3.7,5.3,14.1c-10.1,19.9-24.5,35.5-44.3,46.2
							c-11.5,6.2-22.8,12.7-35.4,16.5c-18.5,5.7-36.9,4.3-55.4-0.1c-20.6-4.9-40.2-12.4-59.1-21.8c-22.4-11.1-39.7-28.2-52.5-49.7
							c-2.8-4.7-2.8-4.9,2.1-7.6c15-8.6,21.7-22,23.5-38.8c1.5-14.2-0.2-28.1-1.8-42.1C594.1,614.3,593.3,612.8,595.8,613.1
							L595.8,613.1z"/>
						<path class="st7" d="M829.8,480c-0.3,11.9-2.5,23.3-7.6,34.1c-3.7,7.9-8.8,14.8-16.3,19.6c-2.5,1.6-5.1,3-8.2,2.4
							c-2.3-0.4-4-1.4-3.5-4.2c2.5-13.6,0.2-27.7,3.8-41.3c3.4-13.2,9.2-25.1,16.6-36.5c1.5-2.3,3.3-2.3,5.3-1
							c2.6,1.6,4.2,4.1,5.6,6.7C829,466.1,830.2,472.9,829.8,480L829.8,480z"/>
						<path class="st7" d="M542.8,473.3c-0.1-3.6,0.4-7.2,1.4-10.6c1-3.3,2.7-6.1,5.5-8.2c3.7-2.7,4.6-2.6,6.3,1.6
							c4.8,12.3,9.6,24.6,14.3,37c0.8,2,1.1,4,1.1,6.2c0.5,11.6,1.9,23,3.6,34.5c0.5,3.7,0.2,4.1-3.5,3.7
							c-6.1-0.7-11.1-3.5-14.9-8.4c-1.7-2.2-3-4.6-3.9-7.2C547.4,506.1,544.5,489.8,542.8,473.3L542.8,473.3z"/>
						<path class="st9" d="M780.6,590.3c-0.8-1.2,0.3-3-1.4-3.9c-0.1-1.8,0.6-3.1,2.2-4.2C781.9,585.1,782,587.8,780.6,590.3
							L780.6,590.3z"/>
						<path class="st10" d="M565.6,696.3c0-0.4,0-0.8,0-1.2c1-1.3,2.3-2.1,4.5-2.2C569.2,695.2,567,695.3,565.6,696.3L565.6,696.3z"
							/>
						<path class="st11" d="M595.8,613.1c-1.1,0.5-0.8,1.7-1.3,2.5c-0.3-0.7-0.9-1.4-1-2.2s-0.8-2.2,0.6-2.4
							C595.1,610.8,595.5,612.1,595.8,613.1L595.8,613.1z"/>
						<path class="st12" d="M797.1,477.9c0.3-0.1,0.6-0.1,0.9,0c-0.1,0.6,0.6,1.5-0.7,1.7C797.2,479.1,797.1,478.5,797.1,477.9
							L797.1,477.9z"/>
						<path class="st13" d="M571,483.2c0,0.1,0,0.3,0,0.4c-0.1,0.1-0.4,0.2-0.5,0.1c-0.5-0.2-0.5-0.5,0.1-0.7
							C570.7,483,570.9,483.1,571,483.2z"/>
					</g>
				</g>
			</g>
		</g>
	</g>
</g>
</svg>
